<?xml version="1.0" encoding="utf-8"?>
<!-- Generator: Adobe Illustrator 19.0.0, SVG Export Plug-In . SVG Version: 6.00 Build 0)  -->
<svg version="1.1" id="Livello_1" xmlns="http://www.w3.org/2000/svg" xmlns:xlink="http://www.w3.org/1999/xlink" x="0px" y="0px"
	 viewBox="15.4 -120.3 269.3 269.3" style="enable-background:new 15.4 -120.3 269.3 269.3;" xml:space="preserve">
<style type="text/css">
	.st0{fill:#FDCC80;}
	.st1{fill:none;}
	.st2{fill:#FFFFFF;}
	.st3{opacity:0.5;fill:#FA7471;enable-background:new    ;}
	.st4{fill:#FA7471;}
	.st5{fill:#A575B7;}
	.st6{fill:none;stroke:#8A3D9B;stroke-width:8.2;stroke-miterlimit:10;}
	.st7{fill:#8A3D9B;}
</style>
<g>
	<g>
		<circle id="XMLID_151_" class="st0" cx="161.8" cy="27" r="100.2"/>
		<path id="XMLID_150_" class="st1" d="M128.4-81.8c12.9-4,23.2-3.7,29.3-3c6.8,0.8,12.1,2.5,22,5.7c7.1,2.3,12.2,3.9,18.7,7.3
			c7.3,3.8,12.3,7.7,15.7,10.3c4,3.1,7.5,5.9,11.3,10.3c3.7,4.3,1.2,2.6,8,12.3c1.1,1.6,2.7,3.9,2,6c-0.6,1.7-2.3,2.5-2.7,2.7
			c-2.1,1-4.1,0.5-6,0c-2.3-0.6-4.3-1.6-7-3c-1.8-0.9-2.5-1.4-3.7-1.3c-1.6,0-2.8,0.8-4,1.7c-1.3,0.9-2.4,1.6-3,3
			c-0.7,1.6-0.4,3-0.3,3.7c0.5,2.6,2,3.5,5.3,7.3c2.9,3.3,4.4,5,5,7.3c0.3,1,1,3.7-0.3,6c-0.2,0.3-0.4,0.6-3.3,3.3
			c-1.8,1.6-2.6,2.4-3,2.7c-2.5,1.5-5.1,1.4-6.3,1.3c-1-0.1-4.3-0.3-7.3-2.7c-3.1-2.4-2.2-4-5-6.3c-3.8-3.1-9.1-3-9-3.3
			c0-0.3,2.8,0.2,3-0.3c0.2-0.7-4.8-2.8-11.7-6c-11.4-5.2-11.7-5.8-15.3-6.7c-4.3-1-7.7-1-13-1c-8,0-13.6,1-13.7,0.7
			c0-0.3,2.8-1.1,3-0.7c0.5,1.1-17.8,6.7-22.7,19.3c-1.3,3.3-2,7.3-2,7.3c-0.8,4.3-0.3,5.9-0.7,11.7c-0.5,8.5-1.6,8.1-1,11.3
			c0.6,3.1,2.5,5.9,6.3,11.3c3.8,5.5,5.8,8.2,8.3,10c4.3,3,7.1,2.6,8.7,5.7c1.4,2.7-0.4,3.9,1,7.3c1.1,2.8,2.5,2.5,6,7.3
			c3.1,4.1,3.1,5.7,3,6.3c-0.2,2.5-2.3,4.3-2.7,4.7c-1.2,1-2.3,1.4-4,2c-2.3,0.8-4.2,1-4.7,1c-2.4,0.2-5.2,0.4-7.3-1
			c-2.8-1.8-1.4-4.5-4.3-8c-1.9-2.3-5.6-4.9-9-4c-2.1,0.6-3.4,2.3-5.3,5c-1.7,2.4-2.7,3.8-2.7,5.7c0,2.1,1.2,2.3,3.3,6.7
			c1.1,2.3,1.8,3.7,2,5.7c0.1,0.7,0.3,3.1-0.7,6c-0.6,1.8-1.2,3.5-2.7,4.3c-2.4,1.3-5.7-0.7-7.3-1.7c-16.4-10.1-24-19.7-24-19.7
			c-4.1-5.2-10.1-13.8-15.3-26c-7.6-17.7-8.8-32.4-9-35.7c-0.5-7.5-1.1-16.8,2-28.3c3.2-11.9,8.7-19.7,14-27.3
			c3.8-5.5,11.1-15.8,24-25.7C104.5-74,118.7-79.2,128.4-81.8z"/>
		<circle id="tondo_interno_1_" class="st2" cx="149.4" cy="14.2" r="36.8"/>
		<path id="XMLID_148_" class="st3" d="M108.7,105.5c-6.6,0.3-31.9-13.4-42.4-49.5c-1.9-6.6-4.5-16.8-4.5-29.6
			c0-55,44.6-99.6,99.6-99.6c13.1,0,23.5,2.7,29.6,4.5c34.4,10.4,48,34.1,44.9,40.5s-10.6-3.4-22.9-2.5c-1.4,0.1-4.2,4-4.2,6.2
			c0,7.2,13.5,12.7,14.6,15.9c1.7,5,3.4,6.2,2.3,9.5c-1.5,4.8-2.9,3.6-5.2,5.9c-0.9,0.9-5.6,0.7-16.6-1.7c-5.9-1.3-18-11.2-18-11.4
			c0-0.4-16.2-13.3-30.2-14.8c-6.6-0.7-28.1-2.8-39.2,19.2c-0.5,1.1-4.4,20-4.2,22.5c0.9,11.9,7,24.7,12.1,27.5
			c11.7,6.4,12.9,14.7,12.8,14.4c-0.1-0.4,7.8,14.7,8.2,17.3c0.3,2.1-0.8,7.4-3.7,8.7c-3.5,1.5-7.7-1.7-8.4-2.1
			c-0.8-0.5-10.7-16.3-19.5-13.1c-0.8,0.3-6,3.7-7.6,5c-0.3,0.2,4.8,15.4,5.6,18.5C112.3,98.6,109.5,105.5,108.7,105.5z"/>
		<g id="XMLID_99_">
			<g id="XMLID_144_">
				<g id="XMLID_145_">
					<path id="XMLID_146_" class="st4" d="M135.1-69.3c-0.1,0-0.1,0-0.2,0c-2.3,0.4-3.8,2.6-3.4,4.9c0.4,2.3,2.6,3.8,4.9,3.4
						c0.8-0.1,1.5-0.5,2.1-1c1-0.9,1.6-2.3,1.4-3.7C139.6-68,137.4-69.6,135.1-69.3z"/>
				</g>
			</g>
			<g id="XMLID_141_">
				<g id="XMLID_142_">
					<path id="XMLID_143_" class="st4" d="M181.7-65c-2.3-0.1-4.3,1.7-4.5,4l-0.5,8.4c-0.1,2.3,1.7,4.3,4,4.5
						c1.2,0.1,2.2-0.3,3.1-1.1c0.8-0.7,1.3-1.7,1.4-2.9l0.5-8.4C185.8-62.9,184-64.9,181.7-65z"/>
				</g>
			</g>
			<g id="XMLID_138_">
				<g id="XMLID_139_">
					<path id="XMLID_140_" class="st4" d="M94.4,47.1c-2.3-0.1-4.3,1.7-4.5,4l-0.5,8.4c-0.1,2.3,1.7,4.3,4,4.5
						c1.2,0.1,2.2-0.3,3.1-1.1c0.8-0.7,1.3-1.7,1.4-2.9l0.5-8.4C98.5,49.2,96.7,47.2,94.4,47.1z"/>
				</g>
			</g>
			<g id="XMLID_135_">
				<g id="XMLID_136_">
					<path id="XMLID_137_" class="st5" d="M65.4,1.7c-2.3-0.1-4.3,1.7-4.5,4l-0.5,8.4c-0.1,2.3,1.7,4.3,4,4.5
						c1.2,0.1,2.2-0.3,3.1-1.1s1.3-1.7,1.4-2.9l0.5-8.4C69.5,3.9,67.7,1.9,65.4,1.7z"/>
				</g>
			</g>
			<g id="XMLID_132_">
				<g id="XMLID_133_">
					<path id="XMLID_134_" class="st5" d="M157.2-61.8l-6.2,5.6c-1.7,1.6-1.9,4.2-0.3,6c1.6,1.7,4.2,1.9,6,0.3l6.2-5.6
						c1.7-1.6,1.9-4.2,0.3-6S158.9-63.4,157.2-61.8z"/>
				</g>
			</g>
			<g id="XMLID_129_">
				<g id="XMLID_130_">
					<path id="XMLID_131_" class="st4" d="M93.8-23.3l-8.3-0.5c-2.3-0.1-4.3,1.7-4.5,4s1.7,4.3,4,4.5l8.3,0.5
						c1.2,0.1,2.2-0.3,3.1-1.1c0.8-0.7,1.3-1.7,1.4-2.9C97.9-21.2,96.1-23.2,93.8-23.3z"/>
				</g>
			</g>
			<g id="XMLID_126_">
				<g id="XMLID_127_">
					<path id="XMLID_128_" class="st5" d="M189.1-35.1l-8.3-0.5c-2.3-0.1-4.3,1.7-4.5,4s1.7,4.3,4,4.5l8.3,0.5
						c1.2,0.1,2.2-0.3,3.1-1.1s1.3-1.7,1.4-2.9C193.2-33,191.5-35,189.1-35.1z"/>
				</g>
			</g>
			<g id="XMLID_123_">
				<g id="XMLID_124_">
					<path id="XMLID_125_" class="st4" d="M132.4-42.3l-7.1-4.4c-2-1.2-4.6-0.6-5.8,1.4c-1.2,2-0.6,4.6,1.4,5.8l7.1,4.4
						c1,0.6,2.1,0.8,3.2,0.5c1.1-0.2,2-0.9,2.6-1.9C134.9-38.5,134.3-41.1,132.4-42.3z"/>
				</g>
			</g>
			<g id="XMLID_120_">
				<g id="XMLID_121_">
					<path id="XMLID_122_" class="st5" d="M88.2,5.7c-2.1,1.1-2.8,3.7-1.7,5.7l4,7.4c1.1,2.1,3.7,2.8,5.7,1.7
						c1.1-0.6,1.8-1.6,2.1-2.7c0.3-1,0.1-2.1-0.4-3l-4-7.4C92.8,5.4,90.2,4.6,88.2,5.7z"/>
				</g>
			</g>
		</g>
		<g id="Livello_2">
			<path id="XMLID_77_" class="st5 hair" d="M232.5-83.3c-2.2,3.1-4.6,6-7.2,8.7c-1.8,1.9-1.7,4.9,0.1,6.7c1.9,1.8,4.9,1.7,6.7-0.1
				c2.9-3,5.6-6.3,8-9.7c1.5-2.1,1-5.1-1.1-6.6S234-85.4,232.5-83.3z"/>
			<path id="XMLID_51_" class="st5 hair" d="M144.7-113.4c0.2,3.7,0.2,7.5-0.2,11.2c-0.2,2.6,1.7,4.9,4.3,5.1c2.6,0.2,4.9-1.7,5.1-4.3
				c0.4-4.2,0.4-8.4,0.2-12.6c-0.2-2.6-2.4-4.6-5-4.4C146.6-118.3,144.6-116,144.7-113.4z"/>
			<path id="XMLID_61_" class="st5 hair" d="M59.3-75.7c3.1,2.2,6,4.5,8.7,7.1c1.9,1.8,4.9,1.7,6.7-0.2s1.7-4.9-0.2-6.7
				c-3-2.9-6.3-5.5-9.8-8c-2.1-1.5-5.1-1-6.6,1.1S57.1-77.2,59.3-75.7z"/>
			<path id="XMLID_62_" class="st5 hair" d="M22.6,11.6c3.7-0.2,7.5-0.1,11.2,0.3c2.6,0.3,4.9-1.6,5.2-4.2s-1.6-4.9-4.2-5.2
				C30.6,2.1,26.4,2,22.2,2.2c-2.6,0.1-4.6,2.3-4.5,4.9C17.8,9.8,20,11.8,22.6,11.6z"/>
			<path id="XMLID_63_" class="st5 hair" d="M60.2,102.2c2.2-3,4.6-5.9,7.2-8.6c1.8-1.9,1.8-4.9-0.1-6.7c-1.9-1.8-4.9-1.8-6.7,0.1
				c-2.9,3-5.6,6.3-8.1,9.7c-1.5,2.1-1,5.1,1.1,6.6C55.7,104.7,58.6,104.3,60.2,102.2z"/>
			<g id="XMLID_52_">
				<g id="XMLID_58_">
					<circle id="XMLID_64_" class="st6" cx="149.1" cy="15" r="99.4"/>
					<g id="XMLID_60_">
						<g id="XMLID_91_">
							<path id="XMLID_97_" class="st7" d="M192.5,5.6c4.2-4.4,9.6,0.5,13.6,2.9c4,2.3,7.9,3.4,12.4,2.3c8.7-1.9,13.9-9.9,10.2-18.5
								c-1.9-4.4-5.5-7.4-9.5-9.8c-2.3-1.4-5.5-2.5-7-4.9c-2.6-4.1,2.6-5.6,5.7-4.4c4.6,1.7,8.3,3.1,13.2,1.4
								c3.5-1.2,7.6-1.6,8.2-6.1c0.7-5.3-7.4-7.6-8.1-2.2c-0.1,0.2-0.1,0.5-0.2,0.7c0.8-0.6,1.7-1.3,2.5-1.9c-1.6,0.6-3.3,1-4.9,1.5
								c-3.2,1-5.2-0.1-8-1.3c-4.2-1.6-8.7-1.6-12.6,0.9c-8.9,5.9-4.6,16.6,2.8,21.3c3.9,2.5,10.3,4.7,10.5,10.2
								c0.2,6.1-7.6,5.7-11.2,3.6c-7.7-4.5-16.2-9.3-23.7-1.6C182.8,3.6,188.7,9.5,192.5,5.6L192.5,5.6z"/>
						</g>
					</g>
					<g id="XMLID_59_">
						<g id="XMLID_85_">
							<path id="XMLID_89_" class="st7" d="M132.5,56.1c-0.9,3.8-0.5,7.5,1.3,11c1.8,3.6,7.8,8,7.6,12.1c-0.1,3.1-2.8,4.1-5.5,3.5
								s-4.2-2.3-5.7-4.5c-2.3-3.3-4.5-6.6-8.2-8.5c-6.7-3.5-15.8-3-19.4,4.4c-1.8,3.7-2.1,8.1-0.9,12.1c0.7,2.3,2,4.3,3.3,6.3
								c0.7,1.2,1.6,2.2,1.3,3.7c-0.4,1.7-1.3,1.6-3.1,1.8c-5.3,0.6-5.4,9,0,8.4c4-0.5,8.2-1.3,10.5-4.9c2.3-3.7,1.4-8.1-0.6-11.7
								c-1.4-2.6-3.5-4.9-3.7-7.9c-0.3-4.2,2.2-6.4,6.2-5.5c5.8,1.3,7.2,7.2,11.1,11c5.7,5.5,17.4,5.9,21.4-1.7
								c2.1-3.9,2.2-8.7,0.1-12.6c-2.5-4.6-9-8.8-7.6-14.6C141.8,53.1,133.7,50.8,132.5,56.1L132.5,56.1z"/>
						</g>
					</g>
				</g>
				<g id="XMLID_56_">
					<g id="XMLID_57_">
						<g id="XMLID_78_">
							<path id="XMLID_83_" class="st7" d="M138.2-20c13.4-2.9,27.6-0.7,37.5,9.4c7.8,8,11.8,19.6,10.2,30.7
								c-3.9,27.4-37.5,39.4-58.4,22c-12.2-10.2-14.2-25.9-10.4-40.6c1.4-5.6-7.2-8-8.7-2.4c-4.2,16.3-2.4,33.7,9.6,46.4
								c9.3,9.9,23.6,15.2,37.1,13.8c17.5-1.8,32.6-13.9,38.1-30.7c4.6-13.9,1.4-29.7-7.4-41.3c-11.9-15.7-31.3-20-49.9-16
								C130.2-27.5,132.6-18.8,138.2-20L138.2-20z"/>
						</g>
					</g>
				</g>
			</g>
		</g>
		<g id="XMLID_80_">
			<g id="XMLID_93_">
				<path id="XMLID_96_" class="st5" d="M99.3-54.8l-8,2.4c-2.2,0.7-3.5,3-2.9,5.2c0.7,2.2,3,3.5,5.2,2.9l8-2.4c1.1-0.3,2-1.1,2.5-2
					s0.7-2.1,0.3-3.2C103.9-54.1,101.5-55.4,99.3-54.8z"/>
			</g>
		</g>
		<g id="XMLID_19_">
			<g id="XMLID_20_">
				<path id="XMLID_21_" class="st4" d="M81.8,30.7c-0.1,0-0.1,0-0.2,0c-3.2,0.6-4.9,4.7-1.8,7.7c2.1,1.2,4.1,0.8,5.4-0.4
					c1-0.9,1.6-2.3,1.4-3.7C86.2,32,84.1,30.4,81.8,30.7z"/>
			</g>
		</g>
		<g id="XMLID_45_">
			<g id="XMLID_55_">
				<path id="XMLID_48_" class="st6" d="M236.8-67.7"/>
			</g>
		</g>
		<g id="XMLID_6_">
			<g id="XMLID_18_">
				<path id="XMLID_26_" class="st7" d="M124.3-21.7c-3.2,1.7-6.1,4.3-8.3,7.1c-1.4,1.8-1.1,4.9,0.8,6.3c2,1.5,4.7,1.1,6.3-0.8
					c0.4-0.5,0.8-0.9,1.2-1.4c0.6-0.6-0.3,0.3,0.1-0.1c0.2-0.3,0.6-0.5,0.8-0.8c0.6-0.4,1-0.9,1.6-1.3c0.3-0.3,0.6-0.4,0.9-0.6
					c0.8-0.5-0.6,0.3,0.1-0.1c2-1.1,3.5-3.6,2.3-6C129.2-21.4,126.6-22.9,124.3-21.7L124.3-21.7z"/>
			</g>
		</g>
	</g>
</g>
</svg>
