<?xml version="1.0" encoding="utf-8"?>
<!-- Generator: Adobe Illustrator 19.0.0, SVG Export Plug-In . SVG Version: 6.00 Build 0)  -->
<svg version="1.1" id="Livello_1" xmlns="http://www.w3.org/2000/svg" xmlns:xlink="http://www.w3.org/1999/xlink" x="0px" y="0px"
	 viewBox="185 210 220 220" xml:space="preserve">
<style type="text/css">
	.st0{fill:#FDCC80;}
	.st1{fill:none;}
	.st2{opacity:0.5;fill:#FA7471;}
	.st3{fill:#FFFFFF;}
	.st4{fill:#FA7471;}
	.st5{fill:#A575B7;}
	.st6{fill:#8A3D9B;}
</style>
<circle id="XMLID_151_" class="st0" cx="301.6" cy="325.8" r="101.2"/>
<path id="XMLID_150_" class="st1" d="M268.4,217.9c12.9-4,23.2-3.7,29.3-3c6.8,0.8,12.1,2.5,22,5.7c7.1,2.3,12.2,3.9,18.7,7.3
	c7.3,3.8,12.3,7.7,15.7,10.3c4,3.1,7.5,5.9,11.3,10.3c3.7,4.3,1.2,2.6,8,12.3c1.1,1.6,2.7,3.9,2,6c-0.6,1.7-2.3,2.5-2.7,2.7
	c-2.1,1-4.1,0.5-6,0c-2.3-0.6-4.3-1.6-7-3c-1.8-0.9-2.5-1.4-3.7-1.3c-1.6,0-2.8,0.8-4,1.7c-1.3,0.9-2.4,1.6-3,3
	c-0.7,1.6-0.4,3-0.3,3.7c0.5,2.6,2,3.5,5.3,7.3c2.9,3.3,4.4,5,5,7.3c0.3,1,1,3.7-0.3,6c-0.2,0.3-0.4,0.6-3.3,3.3
	c-1.8,1.6-2.6,2.4-3,2.7c-2.5,1.5-5.1,1.4-6.3,1.3c-1-0.1-4.3-0.3-7.3-2.7c-3.1-2.4-2.2-4-5-6.3c-3.8-3.1-9.1-3-9-3.3
	c0-0.3,2.8,0.2,3-0.3c0.2-0.7-4.8-2.8-11.7-6c-11.4-5.2-11.7-5.8-15.3-6.7c-4.3-1-7.7-1-13-1c-8,0-13.6,1-13.7,0.7
	c0-0.3,2.8-1.1,3-0.7c0.5,1.1-17.8,6.7-22.7,19.3c-1.3,3.3-2,7.3-2,7.3c-0.8,4.3-0.3,5.9-0.7,11.7c-0.5,8.5-1.6,8.1-1,11.3
	c0.6,3.1,2.5,5.9,6.3,11.3c3.8,5.5,5.8,8.2,8.3,10c4.3,3,7.1,2.6,8.7,5.7c1.4,2.7-0.4,3.9,1,7.3c1.1,2.8,2.5,2.5,6,7.3
	c3.1,4.1,3.1,5.7,3,6.3c-0.2,2.5-2.3,4.3-2.7,4.7c-1.2,1-2.3,1.4-4,2c-2.3,0.8-4.2,1-4.7,1c-2.4,0.2-5.2,0.4-7.3-1
	c-2.8-1.8-1.4-4.5-4.3-8c-1.9-2.3-5.6-4.9-9-4c-2.1,0.6-3.4,2.3-5.3,5c-1.7,2.4-2.7,3.8-2.7,5.7c0,2.1,1.2,2.3,3.3,6.7
	c1.1,2.3,1.8,3.7,2,5.7c0.1,0.7,0.3,3.1-0.7,6c-0.6,1.8-1.2,3.5-2.7,4.3c-2.4,1.3-5.7-0.7-7.3-1.7c-16.4-10.1-24-19.7-24-19.7
	c-4.1-5.2-10.1-13.8-15.3-26c-7.6-17.7-8.8-32.4-9-35.7c-0.5-7.5-1.1-16.8,2-28.3c3.2-11.9,8.7-19.7,14-27.3
	c3.8-5.5,11.1-15.8,24-25.7C244.5,225.7,258.7,220.5,268.4,217.9z"/>
<path id="XMLID_148_" class="st2" d="M248.5,403.4c-6.6,0.3-31.9-13.4-42.4-49.5c-1.9-6.6-4.5-16.8-4.5-29.6
	c0-55,44.6-99.6,99.6-99.6c13.1,0,23.5,2.7,29.6,4.5c34.4,10.4,49.4,37.2,46.3,43.6s-8.6-6.5-20.9-5.6c-1.4,0.1-6.1,4.5-7.5,6.2
	c-2.7,3.2,8.1,13.6,9.2,16.7c1.7,5,3.4,6,3.3,9.5c0,0.9-2.4,1.6-4.6,3.9c-1.3,1.4-1.3-0.6-12.8-0.7c-6,0-12.8-11.5-12.8-11.8
	c0-0.2-5.2,0.5-5.2,0.3c0-0.4-16.6-16.8-30.1-12.8c-3.4,1-14.9-6.4-36.3,18.2c-0.8,0.9-7.4,18.9-7.2,21.4c0.9,11.9,5,25.8,12.1,27.5
	c13,3,18.6,17.2,15.7,17c-13.7-0.9-2.8-2.3-2.9-2.6c-0.1-0.4,14.3,6.6,8.2,6.2c-2.4-0.2,2.7,11.3,0,11.1c-2.7-0.1-2.7,4.6-5.6,5.9
	c-3.5,1.5-5.8,1.1-6.5,0.7c-0.8-0.5-6.4-3.8-5.6-3.9c1.1-0.1,2.7-7.9,2.9-2.3c0.4,8.9-9.2-8.1-18-4.9c-1.4,0.5-7.2,0.3-3.3,2.3
	c0.3,0.2,2.3,9.8-3,9.3c-4.1-0.4,12,5.9,6.6,5.4c-1-0.1,3.8,3.5,2.7,5.2c-1.1,1.7-7.6,0.9-6.3,3.4c0.8,1.6,1.4,2.4,2.6,4.9
	c1.2,2.6,1.3,3.3,1,3.9C252,408.8,249.3,403.4,248.5,403.4z"/>
<circle id="tondo_interno_1_" class="st3" cx="289.4" cy="313.9" r="36.8"/>
<g id="XMLID_99_">
	<g id="XMLID_144_">
		<g id="XMLID_145_">
			<path id="XMLID_146_" class="st4" d="M275.1,230.4c-0.1,0-0.1,0-0.2,0c-2.3,0.4-3.8,2.6-3.4,4.9c0.4,2.3,2.6,3.8,4.9,3.4
				c0.8-0.1,1.5-0.5,2.1-1c1-0.9,1.6-2.3,1.4-3.7C279.6,231.7,277.4,230.1,275.1,230.4z"/>
		</g>
	</g>
	<g id="XMLID_141_">
		<g id="XMLID_142_">
			<path id="XMLID_143_" class="st4" d="M321.7,234.7c-2.3-0.1-4.3,1.7-4.5,4l-0.5,8.4c-0.1,2.3,1.7,4.3,4,4.5
				c1.2,0.1,2.2-0.3,3.1-1.1c0.8-0.7,1.3-1.7,1.4-2.9l0.5-8.4C325.8,236.8,324,234.8,321.7,234.7z"/>
		</g>
	</g>
	<g id="XMLID_138_">
		<g id="XMLID_139_">
			<path id="XMLID_140_" class="st4" d="M226.4,348.4c-2.3-0.1-4.3,1.7-4.5,4l-0.5,8.4c-0.1,2.3,1.7,4.3,4,4.5
				c1.2,0.1,2.2-0.3,3.1-1.1s1.3-1.7,1.4-2.9l0.5-8.4C230.5,350.5,228.7,348.6,226.4,348.4z"/>
		</g>
	</g>
	<g id="XMLID_135_">
		<g id="XMLID_136_">
			<path id="XMLID_137_" class="st5" d="M205.1,305.4c-2.3-0.1-4.3,1.7-4.5,4l-0.5,8.4c-0.1,2.3,1.7,4.3,4,4.5
				c1.2,0.1,2.2-0.3,3.1-1.1s1.3-1.7,1.4-2.9l0.5-8.4C209.2,307.6,207.4,305.6,205.1,305.4z"/>
		</g>
	</g>
	<g id="XMLID_132_">
		<g id="XMLID_133_">
			<path id="XMLID_134_" class="st5" d="M291.2,237.2l-6.2,5.6c-1.7,1.6-1.9,4.2-0.3,6c1.6,1.7,4.2,1.9,6,0.3l6.2-5.6
				c1.7-1.6,1.9-4.2,0.3-6C295.6,235.8,292.9,235.7,291.2,237.2z"/>
		</g>
	</g>
	<g id="XMLID_129_">
		<g id="XMLID_130_">
			<path id="XMLID_131_" class="st4" d="M232.5,314.4l-8.3-0.5c-2.3-0.1-4.3,1.7-4.5,4s1.7,4.3,4,4.5l8.3,0.5
				c1.2,0.1,2.2-0.3,3.1-1.1c0.8-0.7,1.3-1.7,1.4-2.9C236.6,316.5,234.8,314.5,232.5,314.4z"/>
		</g>
	</g>
	<g id="XMLID_126_">
		<g id="XMLID_127_">
			<path id="XMLID_128_" class="st5" d="M329.1,264.6l-8.3-0.5c-2.3-0.1-4.3,1.7-4.5,4s1.7,4.3,4,4.5l8.3,0.5
				c1.2,0.1,2.2-0.3,3.1-1.1s1.3-1.7,1.4-2.9C333.2,266.7,331.5,264.7,329.1,264.6z"/>
		</g>
	</g>
	<g id="XMLID_123_">
		<g id="XMLID_124_">
			<path id="XMLID_125_" class="st4" d="M273.3,258.8l-8.3-0.5c-2.3-0.1-4.3,1.7-4.5,4c-0.1,2.3,1.7,4.3,4,4.5l8.3,0.5
				c1.2,0.1,2.2-0.3,3.1-1.1c0.8-0.7,1.3-1.7,1.4-2.9C277.4,260.9,275.6,258.9,273.3,258.8z"/>
		</g>
	</g>
	<g id="XMLID_120_">
		<g id="XMLID_121_">
			<path id="XMLID_122_" class="st5" d="M228.3,283.1c-2.3-0.2-4.4,1.5-4.6,3.8l-0.8,8.3c-0.2,2.3,1.5,4.4,3.8,4.6
				c1.2,0.1,2.4-0.3,3.2-1.1c0.8-0.7,1.3-1.6,1.4-2.7l0.8-8.3C232.3,285.4,230.6,283.4,228.3,283.1z"/>
		</g>
	</g>
	<g id="XMLID_117_">
		<g id="XMLID_118_">
			<path id="XMLID_119_" class="st6" d="M259.6,281.1L259.6,281.1C259.5,281.2,259.5,281.2,259.6,281.1c-1.8,1.6-2,4.3-0.4,6
				c1.6,1.7,4.2,1.9,6,0.3l0.1-0.1c0,0,0,0,0,0c1.7-1.6,1.9-4.2,0.3-6C264,279.7,261.3,279.6,259.6,281.1z"/>
		</g>
	</g>
	<g id="XMLID_103_">
		<g id="XMLID_104_">
			<path id="XMLID_108_" class="st6" d="M295.2,211.2c-27.6-1.6-54.2,7.7-74.8,26.1s-32.8,43.8-34.4,71.4
				c-1.6,27.6,7.7,54.2,26.1,74.8c18.4,20.6,43.8,32.8,71.4,34.4c27.6,1.6,54.2-7.7,74.8-26.1c20.6-18.4,32.8-43.8,34.4-71.4
				c1.6-27.6-7.7-54.2-26.1-74.8S322.8,212.8,295.2,211.2z M352.7,385.5c-28.4,25.4-68,30.5-100.9,16.4c1.9-2,3-4.6,3.2-7.4
				c0.2-3.3-0.9-6.5-3.1-8.9l-2.5-2.8c-2-2.2-1.9-5.7,0.3-7.8c1.1-1,2.5-1.5,4-1.4c1.6,0.1,3.1,0.8,4.1,1.9l6.4,7.1
				c5.1,5.7,13.8,6.2,19.6,1.3c0.1-0.1,0.1-0.1,0.2-0.2c2.7-2.4,4.3-5.8,4.6-9.4c0.3-3.8-1.1-7.6-3.6-10.5l-4.9-5.5
				c13.5,2.9,28.1-0.5,39.2-10.4c15.7-14.1,19.2-36.8,9.6-54.6c0.9,0.2,1.7,0.6,2.3,1.3l6.9,7.8c5.3,5.9,14.5,6.6,20.5,1.4
				c0.1-0.1,0.1-0.1,0.2-0.2c2.8-2.5,4.5-6,4.8-9.9c0.3-4-1.1-8-3.8-11l-6.7-7.5c-0.8-0.9-1.2-2-1.1-3.2c0.1-1.1,0.6-2.1,1.3-2.7
				c1.7-1.4,4.2-1.2,5.7,0.4l0.7,0.8c3.9,4.3,10.2,5.3,15.2,2.7C392.9,310.5,385,356.6,352.7,385.5z M366.1,264.9l-0.7-0.8
				c-4.5-5-12.3-5.6-17.5-1.2c-2.5,2.2-4,5.2-4.3,8.6c-0.2,3.4,0.9,6.8,3.2,9.3l6.7,7.5c1.2,1.3,1.8,3.1,1.6,4.8
				c-0.1,1.7-0.9,3.2-2.1,4.2c-2.6,2.2-6.5,1.9-8.7-0.6l-6.9-7.8c-3.5-4-9.1-5.1-13.9-3.3c-0.3-0.3-0.5-0.6-0.8-0.9
				c-12.4-13.9-32.4-18.7-49.7-11.9c-2.2,0.9-3.2,3.3-2.4,5.5c0.9,2.2,3.3,3.2,5.5,2.4c14.1-5.5,30.3-1.6,40.3,9.6
				c13.3,14.9,12,38-2.9,51.3s-38,12-51.3-2.9c-10.1-11.3-12.1-27.8-5-41.2c1.1-2.1,0.3-4.6-1.8-5.7s-4.6-0.3-5.7,1.8
				c-8.7,16.5-6.2,36.9,6.2,50.8c3.7,4.1,8,7.4,12.6,9.8c0.1,2.7,1.2,5.4,3.1,7.5l6.9,7.8c1,1.2,1.6,2.7,1.5,4.3
				c-0.1,1.5-0.8,2.8-1.8,3.8c-2.3,2-5.8,1.7-7.8-0.5l-6.4-7.1c-2.5-2.8-6.2-4.6-10-4.8c-3.8-0.2-7.4,1.1-10.1,3.7
				c-5.5,5.1-5.9,13.9-0.9,19.6l2.5,2.8c0.7,0.7,1,1.7,0.9,2.7c-0.1,0.9-0.5,1.8-1.2,2.4c-1,0.9-2.5,1.1-3.7,0.5
				c-8.5-4.9-16.3-11.2-23.2-18.9c-34.9-39.1-31.5-99.3,7.6-134.2s99.3-31.5,134.2,7.6c4.1,4.6,7.6,9.4,10.7,14.5
				C369.4,266.6,367.3,266.3,366.1,264.9z"/>
		</g>
	</g>
</g>
<g id="XMLID_80_">
	<g id="XMLID_93_">
		<path id="XMLID_96_" class="st5" d="M239.3,244.9l-8,2.4c-2.2,0.7-3.5,3-2.9,5.2c0.7,2.2,3,3.5,5.2,2.9l8-2.4c1.1-0.3,2-1.1,2.5-2
			c0.5-0.9,0.7-2.1,0.3-3.2C243.9,245.6,241.5,244.3,239.3,244.9z"/>
	</g>
</g>
</svg>
