<?xml version="1.0" encoding="utf-8"?>
<!-- Generator: Adobe Illustrator 19.0.0, SVG Export Plug-In . SVG Version: 6.00 Build 0)  -->
<svg version="1.1" id="Livello_1" xmlns="http://www.w3.org/2000/svg" xmlns:xlink="http://www.w3.org/1999/xlink" x="0px" y="0px"
	 viewBox="0 0 250 250" style="enable-background:new 0 0 250 250;" xml:space="preserve">
<style type="text/css">
	.st0{fill:#F5CC80;}
	.st1{fill:none;}
	.st2{opacity:0.5;fill:#F47471;enable-background:new    ;}
	.st3{fill:#FFFFFF;}
	.st4{fill:#F47471;}
	.st5{fill:#A575AF;}
	.st6{fill:none;stroke:#8A3D97;stroke-width:8.2;stroke-miterlimit:10;}
	.st7{fill:#8A3D97;}
</style>
<circle id="XMLID_151_" class="st0" cx="145.6" cy="147.1" r="100.2"/>
<path id="XMLID_150_" class="st1" d="M113.4,39.9c12.9-4,23.2-3.7,29.3-3c6.8,0.8,12.1,2.5,22,5.7c7.1,2.3,12.2,3.9,18.7,7.3
	c7.3,3.8,12.3,7.7,15.7,10.3c4,3.1,7.5,5.9,11.3,10.3c3.7,4.3,1.2,2.6,8,12.3c1.1,1.6,2.7,3.9,2,6c-0.6,1.7-2.3,2.5-2.7,2.7
	c-2.1,1-4.1,0.5-6,0c-2.3-0.6-4.3-1.6-7-3c-1.8-0.9-2.5-1.4-3.7-1.3c-1.6,0-2.8,0.8-4,1.7c-1.3,0.9-2.4,1.6-3,3
	c-0.7,1.6-0.4,3-0.3,3.7c0.5,2.6,2,3.5,5.3,7.3c2.9,3.3,4.4,5,5,7.3c0.3,1,1,3.7-0.3,6c-0.2,0.3-0.4,0.6-3.3,3.3
	c-1.8,1.6-2.6,2.4-3,2.7c-2.5,1.5-5.1,1.4-6.3,1.3c-1-0.1-4.3-0.3-7.3-2.7c-3.1-2.4-2.2-4-5-6.3c-3.8-3.1-9.1-3-9-3.3
	c0-0.3,2.8,0.2,3-0.3c0.2-0.7-4.8-2.8-11.7-6c-11.4-5.2-11.7-5.8-15.3-6.7c-4.3-1-7.7-1-13-1c-8,0-13.6,1-13.7,0.7
	c0-0.3,2.8-1.1,3-0.7c0.5,1.1-17.8,6.7-22.7,19.3c-1.3,3.3-2,7.3-2,7.3c-0.8,4.3-0.3,5.9-0.7,11.7c-0.5,8.5-1.6,8.1-1,11.3
	c0.6,3.1,2.5,5.9,6.3,11.3c3.8,5.5,5.8,8.2,8.3,10c4.3,3,7.1,2.6,8.7,5.7c1.4,2.7-0.4,3.9,1,7.3c1.1,2.8,2.5,2.5,6,7.3
	c3.1,4.1,3.1,5.7,3,6.3c-0.2,2.5-2.3,4.3-2.7,4.7c-1.2,1-2.3,1.4-4,2c-2.3,0.8-4.2,1-4.7,1c-2.4,0.2-5.2,0.4-7.3-1
	c-2.8-1.8-1.4-4.5-4.3-8c-1.9-2.3-5.6-4.9-9-4c-2.1,0.6-3.4,2.3-5.3,5c-1.7,2.4-2.7,3.8-2.7,5.7c0,2.1,1.2,2.3,3.3,6.7
	c1.1,2.3,1.8,3.7,2,5.7c0.1,0.7,0.3,3.1-0.7,6c-0.6,1.8-1.2,3.5-2.7,4.3c-2.4,1.3-5.7-0.7-7.3-1.7c-16.4-10.1-24-19.7-24-19.7
	c-4.1-5.2-10.1-13.8-15.3-26c-7.6-17.7-8.8-32.4-9-35.7c-0.5-7.5-1.1-16.8,2-28.3c3.2-11.9,8.7-19.7,14-27.3
	c3.8-5.5,11.1-15.8,24-25.7C89.5,47.7,103.7,42.5,113.4,39.9z"/>
<path id="XMLID_148_" class="st2" d="M92.5,225.7c-6.6,0.3-31.9-13.4-42.4-49.5c-1.9-6.6-4.5-16.8-4.5-29.6
	c0-55,44.6-99.6,99.6-99.6c13.1,0,23.5,2.7,29.6,4.5c34.4,10.4,48,34.1,44.9,40.5s-7.3-3.4-19.6-2.5c-1.4,0.1-6.1,4.5-7.5,6.2
	c-2.7,3.2,13.5,12.7,14.6,15.9c1.7,5,3.4,6.8,3.3,10.3c0,0.9-4,2.7-6.2,5.1c-1.3,1.4-5.1-1.7-16.6-1.7c-6,0-14.1-2.8-14.7-9.9
	c-0.5-6.6-3.3-1.3-3.3-1.5c0-0.4-16.6-16.8-30.1-12.8c-3.4,1-14.9-6.4-36.3,18.2c-0.8,0.9-7.4,18.9-7.2,21.4
	c0.9,11.9,5,25.8,12.1,27.5c13,3,18.6,17.2,15.7,17c-13.7-0.9-2.8-2.3-2.9-2.6c-0.1-0.4,11.4,8,5.3,7.5c-2.4-0.2,5.5,9.9,2.9,9.8
	c-2.7-0.1-2.7,4.6-5.6,5.9c-3.5,1.5-5.8,1.1-6.5,0.7c-0.8-0.5-6.4-3.8-5.6-3.9c1.1-0.1,2.7-7.9,2.9-2.3c0.4,8.9-9.2-8.1-18-4.9
	c-0.8,0.3-3-0.2-4.6,1.1c-0.3,0.2-1.1,0.9-1.5,2c-1.2,3.3,2.6,7.4,1.6,8.2c-0.2,0.2-0.8,0.4-1.8,0.3c-4.1-0.4,12,5.9,6.6,5.4
	c-1-0.1,3.8,3.5,2.7,5.2s-7.6,0.9-6.3,3.4c0.8,1.6,1.4,2.4,2.6,4.9c1.2,2.6,1.3,3.3,1,3.9C96,231.1,93.3,225.7,92.5,225.7z"/>
<circle id="tondo_interno_1_" class="st3" cx="134.4" cy="135.9" r="36.8"/>
<g id="XMLID_99_">
	<g id="XMLID_144_">
		<g id="XMLID_145_">
			<path id="XMLID_146_" class="st4" d="M120.1,52.4c-0.1,0-0.1,0-0.2,0c-2.3,0.4-3.8,2.6-3.4,4.9c0.4,2.3,2.6,3.8,4.9,3.4
				c0.8-0.1,1.5-0.5,2.1-1c1-0.9,1.6-2.3,1.4-3.7C124.6,53.7,122.4,52.1,120.1,52.4z"/>
		</g>
	</g>
	<g id="XMLID_141_">
		<g id="XMLID_142_">
			<path id="XMLID_143_" class="st4" d="M166.7,56.7c-2.3-0.1-4.3,1.7-4.5,4l-0.5,8.4c-0.1,2.3,1.7,4.3,4,4.5
				c1.2,0.1,2.2-0.3,3.1-1.1c0.8-0.7,1.3-1.7,1.4-2.9l0.5-8.4C170.8,58.8,169,56.8,166.7,56.7z"/>
		</g>
	</g>
	<g id="XMLID_138_">
		<g id="XMLID_139_">
			<path id="XMLID_140_" class="st4" d="M79.4,168.8c-2.3-0.1-4.3,1.7-4.5,4l-0.5,8.4c-0.1,2.3,1.7,4.3,4,4.5
				c1.2,0.1,2.2-0.3,3.1-1.1c0.8-0.7,1.3-1.7,1.4-2.9l0.5-8.4C83.5,170.9,81.7,168.9,79.4,168.8z"/>
		</g>
	</g>
	<g id="XMLID_135_">
		<g id="XMLID_136_">
			<path id="XMLID_137_" class="st5" d="M50.4,123.4c-2.3-0.1-4.3,1.7-4.5,4l-0.5,8.4c-0.1,2.3,1.7,4.3,4,4.5
				c1.2,0.1,2.2-0.3,3.1-1.1s1.3-1.7,1.4-2.9l0.5-8.4C54.5,125.6,52.7,123.6,50.4,123.4z"/>
		</g>
	</g>
	<g id="XMLID_132_">
		<g id="XMLID_133_">
			<path id="XMLID_134_" class="st5" d="M142.2,59.9l-6.2,5.6c-1.7,1.6-1.9,4.2-0.3,6c1.6,1.7,4.2,1.9,6,0.3l6.2-5.6
				c1.7-1.6,1.9-4.2,0.3-6S143.9,58.3,142.2,59.9z"/>
		</g>
	</g>
	<g id="XMLID_129_">
		<g id="XMLID_130_">
			<path id="XMLID_131_" class="st4" d="M78.8,98.4l-8.3-0.5c-2.3-0.1-4.3,1.7-4.5,4s1.7,4.3,4,4.5l8.3,0.5c1.2,0.1,2.2-0.3,3.1-1.1
				c0.8-0.7,1.3-1.7,1.4-2.9C82.9,100.5,81.1,98.5,78.8,98.4z"/>
		</g>
	</g>
	<g id="XMLID_126_">
		<g id="XMLID_127_">
			<path id="XMLID_128_" class="st5" d="M174.1,86.6l-8.3-0.5c-2.3-0.1-4.3,1.7-4.5,4s1.7,4.3,4,4.5l8.3,0.5
				c1.2,0.1,2.2-0.3,3.1-1.1s1.3-1.7,1.4-2.9C178.2,88.7,176.5,86.7,174.1,86.6z"/>
		</g>
	</g>
	<g id="XMLID_123_">
		<g id="XMLID_124_">
			<path id="XMLID_125_" class="st4" d="M117.4,79.4l-7.1-4.4c-2-1.2-4.6-0.6-5.8,1.4c-1.2,2-0.6,4.6,1.4,5.8l7.1,4.4
				c1,0.6,2.1,0.8,3.2,0.5c1.1-0.2,2-0.9,2.6-1.9C119.9,83.2,119.3,80.6,117.4,79.4z"/>
		</g>
	</g>
	<g id="XMLID_120_">
		<g id="XMLID_121_">
			<path id="XMLID_122_" class="st5" d="M73.2,127.4c-2.1,1.1-2.8,3.7-1.7,5.7l4,7.4c1.1,2.1,3.7,2.8,5.7,1.7
				c1.1-0.6,1.8-1.6,2.1-2.7c0.3-1,0.1-2.1-0.4-3l-4-7.4C77.8,127.1,75.2,126.3,73.2,127.4z"/>
		</g>
	</g>
</g>
<g id="Livello_2">
	<path id="XMLID_77_" class="st5" d="M220.5,34.2c-2.2,3.1-4.6,6-7.2,8.7c-1.8,1.9-1.7,4.9,0.1,6.7c1.9,1.8,4.9,1.7,6.7-0.1
		c2.9-3,5.6-6.3,8-9.7c1.5-2.1,1-5.1-1.1-6.6C224.9,31.7,222,32.1,220.5,34.2z"/>
	<path id="XMLID_51_" class="st5" d="M129.7,8.3c0.2,3.7,0.2,7.5-0.2,11.2c-0.2,2.6,1.7,4.9,4.3,5.1c2.6,0.2,4.9-1.7,5.1-4.3
		c0.4-4.2,0.4-8.4,0.2-12.6c-0.2-2.6-2.4-4.6-5-4.4C131.6,3.4,129.6,5.7,129.7,8.3z"/>
	<path id="XMLID_61_" class="st5" d="M39.3,41.9c3.1,2.2,6,4.5,8.7,7.1c1.9,1.8,4.9,1.7,6.7-0.2s1.7-4.9-0.2-6.7
		c-3-2.9-6.3-5.5-9.8-8c-2.1-1.5-5.1-1-6.6,1.1S37.1,40.4,39.3,41.9z"/>
	<path id="XMLID_62_" class="st5" d="M7.6,133.3c3.7-0.2,7.5-0.1,11.2,0.3c2.6,0.3,4.9-1.6,5.2-4.2s-1.6-4.9-4.2-5.2
		c-4.2-0.4-8.4-0.5-12.6-0.3c-2.6,0.1-4.6,2.3-4.5,4.9C2.8,131.5,5,133.5,7.6,133.3z"/>
	<path id="XMLID_63_" class="st5" d="M45.2,223.9c2.2-3,4.6-5.9,7.2-8.6c1.8-1.9,1.8-4.9-0.1-6.7c-1.9-1.8-4.9-1.8-6.7,0.1
		c-2.9,3-5.6,6.3-8.1,9.7c-1.5,2.1-1,5.1,1.1,6.6C40.7,226.4,43.6,226,45.2,223.9z"/>
	<g id="XMLID_52_">
		<g id="XMLID_58_">
			<circle id="XMLID_64_" class="st6" cx="134.1" cy="136.7" r="99.4"/>
			<g id="XMLID_60_">
				<g id="XMLID_91_">
					<path id="XMLID_97_" class="st7" d="M177.5,127.3c4.2-4.4,9.6,0.5,13.6,2.9c4,2.3,7.9,3.4,12.4,2.3c8.7-1.9,13.9-9.9,10.2-18.5
						c-1.9-4.4-5.5-7.4-9.5-9.8c-2.3-1.4-5.5-2.5-7-4.9c-2.6-4.1,2.6-5.6,5.7-4.4c4.6,1.7,8.3,3.1,13.2,1.4c3.5-1.2,7.6-1.6,8.2-6.1
						c0.7-5.3-7.4-7.6-8.1-2.2c-0.1,0.2-0.1,0.5-0.2,0.7c0.8-0.6,1.7-1.3,2.5-1.9c-1.6,0.6-3.3,1-4.9,1.5c-3.2,1-5.2-0.1-8-1.3
						c-4.2-1.6-8.7-1.6-12.6,0.9c-8.9,5.9-4.6,16.6,2.8,21.3c3.9,2.5,10.3,4.7,10.5,10.2c0.2,6.1-7.6,5.7-11.2,3.6
						c-7.7-4.5-16.2-9.3-23.7-1.6C167.8,125.3,173.7,131.2,177.5,127.3L177.5,127.3z"/>
				</g>
			</g>
			<g id="XMLID_59_">
				<g id="XMLID_85_">
					<path id="XMLID_89_" class="st7" d="M117.5,177.8c-0.9,3.8-0.5,7.5,1.3,11c1.8,3.6,7.8,8,7.6,12.1c-0.1,3.1-2.8,4.1-5.5,3.5
						s-4.2-2.3-5.7-4.5c-2.3-3.3-4.5-6.6-8.2-8.5c-6.7-3.5-15.8-3-19.4,4.4c-1.8,3.7-2.1,8.1-0.9,12.1c0.7,2.3,2,4.3,3.3,6.3
						c0.7,1.2,1.6,2.2,1.3,3.7c-0.4,1.7-1.3,1.6-3.1,1.8c-5.3,0.6-5.4,9,0,8.4c4-0.5,8.2-1.3,10.5-4.9c2.3-3.7,1.4-8.1-0.6-11.7
						c-1.4-2.6-3.5-4.9-3.7-7.9c-0.3-4.2,2.2-6.4,6.2-5.5c5.8,1.3,7.2,7.2,11.1,11c5.7,5.5,17.4,5.9,21.4-1.7
						c2.1-3.9,2.2-8.7,0.1-12.6c-2.5-4.6-9-8.8-7.6-14.6C126.8,174.8,118.7,172.5,117.5,177.8L117.5,177.8z"/>
				</g>
			</g>
		</g>
		<g id="XMLID_56_">
			<g id="XMLID_57_">
				<g id="XMLID_78_">
					<path id="XMLID_83_" class="st7" d="M123.2,101.7c13.4-2.9,27.6-0.7,37.5,9.4c7.8,8,11.8,19.6,10.2,30.7
						c-3.9,27.4-37.5,39.4-58.4,22c-12.2-10.2-14.2-25.9-10.4-40.6c1.4-5.6-7.2-8-8.7-2.4c-4.2,16.3-2.4,33.7,9.6,46.4
						c9.3,9.9,23.6,15.2,37.1,13.8c17.5-1.8,32.6-13.9,38.1-30.7c4.6-13.9,1.4-29.7-7.4-41.3c-11.9-15.7-31.3-20-49.9-16
						C115.2,94.2,117.6,102.9,123.2,101.7L123.2,101.7z"/>
				</g>
			</g>
		</g>
	</g>
</g>
<g id="XMLID_80_">
	<g id="XMLID_93_">
		<path id="XMLID_96_" class="st5" d="M84.3,66.9l-8,2.4c-2.2,0.7-3.5,3-2.9,5.2c0.7,2.2,3,3.5,5.2,2.9l8-2.4c1.1-0.3,2-1.1,2.5-2
			s0.7-2.1,0.3-3.2C88.9,67.6,86.5,66.3,84.3,66.9z"/>
	</g>
</g>
<g id="XMLID_19_">
	<g id="XMLID_20_">
		<path id="XMLID_21_" class="st4" d="M66.8,152.4c-0.1,0-0.1,0-0.2,0c-3.2,0.6-4.9,4.7-1.8,7.7c2.1,1.2,4.1,0.8,5.4-0.4
			c1-0.9,1.6-2.3,1.4-3.7C71.2,153.7,69.1,152.1,66.8,152.4z"/>
	</g>
</g>
<g id="XMLID_45_">
	<g id="XMLID_55_">
		<path id="XMLID_48_" class="st6" d="M221.8,54"/>
	</g>
</g>
<g id="XMLID_6_">
	<g id="XMLID_18_">
		<path id="XMLID_26_" class="st7" d="M109.3,99.7c-3,2.1-5.5,5-7.4,8.1c-1.2,2-0.5,5,1.6,6.2c2.2,1.2,4.8,0.5,6.2-1.6
			c0.3-0.5,0.7-1,1-1.5c0.5-0.7-0.3,0.3,0.1-0.1c0.2-0.3,0.5-0.6,0.7-0.9c0.5-0.5,0.9-1,1.4-1.5c0.3-0.3,0.5-0.5,0.8-0.7
			c0.7-0.6-0.6,0.4,0.1-0.1c1.9-1.3,3-4,1.6-6.2C114.2,99.4,111.4,98.3,109.3,99.7L109.3,99.7z"/>
	</g>
</g>
</svg>
