<?xml version="1.0" encoding="utf-8"?>
<!-- Generator: Adobe Illustrator 19.0.0, SVG Export Plug-In . SVG Version: 6.00 Build 0)  -->
<svg version="1.1" id="Livello_1" xmlns="http://www.w3.org/2000/svg" xmlns:xlink="http://www.w3.org/1999/xlink" x="0px" y="0px"
	 viewBox="0 0 220 220" style="enable-background:new 0 0 220 220;" xml:space="preserve">
<style type="text/css">
	.st0{fill:#F1CC80;}
	.st1{fill:none;}
	.st2{opacity:0.5;fill:#F07471;enable-background:new    ;}
	.st3{fill:#FFFFFF;}
	.st4{fill:#F07471;}
	.st5{fill:#A575AB;}
	.st6{fill:none;stroke:#8A3D95;stroke-width:8.2;stroke-miterlimit:10;}
	.st7{fill:#8A3D95;}
</style>
<circle id="XMLID_151_" class="st0" cx="117.8" cy="117.8" r="100.2"/>
<path id="XMLID_150_" class="st1" d="M85.6,10.6c12.9-4,23.2-3.7,29.3-3c6.8,0.8,12.1,2.5,22,5.7c7.1,2.3,12.2,3.9,18.7,7.3
	c7.3,3.8,12.3,7.7,15.7,10.3c4,3.1,7.5,5.9,11.3,10.3c3.7,4.3,1.2,2.6,8,12.3c1.1,1.6,2.7,3.9,2,6c-0.6,1.7-2.3,2.5-2.7,2.7
	c-2.1,1-4.1,0.5-6,0c-2.3-0.6-4.3-1.6-7-3c-1.8-0.9-2.5-1.4-3.7-1.3c-1.6,0-2.8,0.8-4,1.7c-1.3,0.9-2.4,1.6-3,3
	c-0.7,1.6-0.4,3-0.3,3.7c0.5,2.6,2,3.5,5.3,7.3c2.9,3.3,4.4,5,5,7.3c0.3,1,1,3.7-0.3,6c-0.2,0.3-0.4,0.6-3.3,3.3
	c-1.8,1.6-2.6,2.4-3,2.7c-2.5,1.5-5.1,1.4-6.3,1.3c-1-0.1-4.3-0.3-7.3-2.7c-3.1-2.4-2.2-4-5-6.3c-3.8-3.1-9.1-3-9-3.3
	c0-0.3,2.8,0.2,3-0.3c0.2-0.7-4.8-2.8-11.7-6c-11.4-5.2-11.7-5.8-15.3-6.7c-4.3-1-7.7-1-13-1c-8,0-13.6,1-13.7,0.7
	c0-0.3,2.8-1.1,3-0.7c0.5,1.1-17.8,6.7-22.7,19.3c-1.3,3.3-2,7.3-2,7.3c-0.8,4.3-0.3,5.9-0.7,11.7c-0.5,8.5-1.6,8.1-1,11.3
	c0.6,3.1,2.5,5.9,6.3,11.3c3.8,5.5,5.8,8.2,8.3,10c4.3,3,7.1,2.6,8.7,5.7c1.4,2.7-0.4,3.9,1,7.3c1.1,2.8,2.5,2.5,6,7.3
	c3.1,4.1,3.1,5.7,3,6.3c-0.2,2.5-2.3,4.3-2.7,4.7c-1.2,1-2.3,1.4-4,2c-2.3,0.8-4.2,1-4.7,1c-2.4,0.2-5.2,0.4-7.3-1
	c-2.8-1.8-1.4-4.5-4.3-8c-1.9-2.3-5.6-4.9-9-4c-2.1,0.6-3.4,2.3-5.3,5c-1.7,2.4-2.7,3.8-2.7,5.7c0,2.1,1.2,2.3,3.3,6.7
	c1.1,2.3,1.8,3.7,2,5.7c0.1,0.7,0.3,3.1-0.7,6c-0.6,1.8-1.2,3.5-2.7,4.3c-2.4,1.3-5.7-0.7-7.3-1.7c-16.4-10.1-24-19.7-24-19.7
	c-4.1-5.2-10.1-13.8-15.3-26c-7.6-17.7-8.8-32.4-9-35.7c-0.5-7.5-1.1-16.8,2-28.3c3.2-11.9,8.7-19.7,14-27.3
	c3.8-5.5,11.1-15.8,24-25.7C61.7,18.4,75.9,13.2,85.6,10.6z"/>
<path id="XMLID_148_" class="st2" d="M64.7,196.4c-6.6,0.3-31.9-13.4-42.4-49.5c-1.9-6.6-4.5-16.8-4.5-29.6
	c0-55,44.6-99.6,99.6-99.6c13.1,0,23.5,2.7,29.6,4.5c34.4,10.4,48,34.1,44.9,40.5s-7.3-3.4-19.6-2.5c-1.4,0.1-6.1,4.5-7.5,6.2
	c-2.7,3.2,13.5,12.7,14.6,15.9c1.7,5,3.4,6.8,3.3,10.3c0,0.9-4,2.7-6.2,5.1c-1.3,1.4-5.1-1.7-16.6-1.7c-6,0-14.1-2.8-14.7-9.9
	c-0.5-6.6-3.3-1.3-3.3-1.5c0-0.4-16.6-16.8-30.1-12.8c-3.4,1-14.9-6.4-36.3,18.2c-0.8,0.9-7.4,18.9-7.2,21.4
	c0.9,11.9,5,25.8,12.1,27.5c13,3,18.6,17.2,15.7,17c-13.7-0.9-2.8-2.3-2.9-2.6c-0.1-0.4,11.4,8,5.3,7.5c-2.4-0.2,5.5,9.9,2.9,9.8
	c-2.7-0.1-2.7,4.6-5.6,5.9c-3.5,1.5-5.8,1.1-6.5,0.7c-0.8-0.5-6.4-3.8-5.6-3.9c1.1-0.1,2.7-7.9,2.9-2.3c0.4,8.9-9.2-8.1-18-4.9
	c-0.8,0.3-3-0.2-4.6,1.1c-0.3,0.2-1.1,0.9-1.5,2c-1.2,3.3,2.6,7.4,1.6,8.2c-0.2,0.2-0.8,0.4-1.8,0.3c-4.1-0.4,12,5.9,6.6,5.4
	c-1-0.1,3.8,3.5,2.7,5.2s-7.6,0.9-6.3,3.4c0.8,1.6,1.4,2.4,2.6,4.9c1.2,2.6,1.3,3.3,1,3.9C68.2,201.8,65.5,196.4,64.7,196.4z"/>
<circle id="tondo_interno_1_" class="st3" cx="106.6" cy="106.6" r="36.8"/>
<g id="XMLID_99_">
	<g id="XMLID_144_">
		<g id="XMLID_145_">
			<path id="XMLID_146_" class="st4" d="M92.3,23.1c-0.1,0-0.1,0-0.2,0c-2.3,0.4-3.8,2.6-3.4,4.9c0.4,2.3,2.6,3.8,4.9,3.4
				c0.8-0.1,1.5-0.5,2.1-1c1-0.9,1.6-2.3,1.4-3.7C96.8,24.4,94.6,22.8,92.3,23.1z"/>
		</g>
	</g>
	<g id="XMLID_141_">
		<g id="XMLID_142_">
			<path id="XMLID_143_" class="st4" d="M138.9,27.4c-2.3-0.1-4.3,1.7-4.5,4l-0.5,8.4c-0.1,2.3,1.7,4.3,4,4.5
				c1.2,0.1,2.2-0.3,3.1-1.1c0.8-0.7,1.3-1.7,1.4-2.9l0.5-8.4C143,29.5,141.2,27.5,138.9,27.4z"/>
		</g>
	</g>
	<g id="XMLID_138_">
		<g id="XMLID_139_">
			<path id="XMLID_140_" class="st4" d="M51.6,139.5c-2.3-0.1-4.3,1.7-4.5,4l-0.5,8.4c-0.1,2.3,1.7,4.3,4,4.5
				c1.2,0.1,2.2-0.3,3.1-1.1c0.8-0.7,1.3-1.7,1.4-2.9l0.5-8.4C55.7,141.6,53.9,139.6,51.6,139.5z"/>
		</g>
	</g>
	<g id="XMLID_135_">
		<g id="XMLID_136_">
			<path id="XMLID_137_" class="st5" d="M22.6,94.1c-2.3-0.1-4.3,1.7-4.5,4l-0.5,8.4c-0.1,2.3,1.7,4.3,4,4.5
				c1.2,0.1,2.2-0.3,3.1-1.1s1.3-1.7,1.4-2.9l0.5-8.4C26.7,96.3,24.9,94.3,22.6,94.1z"/>
		</g>
	</g>
	<g id="XMLID_132_">
		<g id="XMLID_133_">
			<path id="XMLID_134_" class="st5" d="M114.4,30.6l-6.2,5.6c-1.7,1.6-1.9,4.2-0.3,6c1.6,1.7,4.2,1.9,6,0.3l6.2-5.6
				c1.7-1.6,1.9-4.2,0.3-6S116.1,29,114.4,30.6z"/>
		</g>
	</g>
	<g id="XMLID_129_">
		<g id="XMLID_130_">
			<path id="XMLID_131_" class="st4" d="M51,69.1l-8.3-0.5c-2.3-0.1-4.3,1.7-4.5,4s1.7,4.3,4,4.5l8.3,0.5c1.2,0.1,2.2-0.3,3.1-1.1
				c0.8-0.7,1.3-1.7,1.4-2.9C55.1,71.2,53.3,69.2,51,69.1z"/>
		</g>
	</g>
	<g id="XMLID_126_">
		<g id="XMLID_127_">
			<path id="XMLID_128_" class="st5" d="M146.3,57.3l-8.3-0.5c-2.3-0.1-4.3,1.7-4.5,4s1.7,4.3,4,4.5l8.3,0.5
				c1.2,0.1,2.2-0.3,3.1-1.1s1.3-1.7,1.4-2.9C150.4,59.4,148.7,57.4,146.3,57.3z"/>
		</g>
	</g>
	<g id="XMLID_123_">
		<g id="XMLID_124_">
			<path id="XMLID_125_" class="st4" d="M89.6,50.1l-7.1-4.4c-2-1.2-4.6-0.6-5.8,1.4c-1.2,2-0.6,4.6,1.4,5.8l7.1,4.4
				c1,0.6,2.1,0.8,3.2,0.5c1.1-0.2,2-0.9,2.6-1.9C92.1,53.9,91.5,51.3,89.6,50.1z"/>
		</g>
	</g>
	<g id="XMLID_120_">
		<g id="XMLID_121_">
			<path id="XMLID_122_" class="st5" d="M45.4,98.1c-2.1,1.1-2.8,3.7-1.7,5.7l4,7.4c1.1,2.1,3.7,2.8,5.7,1.7
				c1.1-0.6,1.8-1.6,2.1-2.7c0.3-1,0.1-2.1-0.4-3l-4-7.4C50,97.8,47.4,97,45.4,98.1z"/>
		</g>
	</g>
</g>
<g id="Livello_2">
	<g id="XMLID_52_">
		<g id="XMLID_58_">
			<circle id="XMLID_64_" class="st6" cx="106.3" cy="107.4" r="99.4"/>
			<g id="XMLID_60_">
				<g id="XMLID_91_">
					<path id="XMLID_97_" class="st7" d="M149.7,98c4.2-4.4,9.6,0.5,13.6,2.9c4,2.3,7.9,3.4,12.4,2.3c8.7-1.9,13.9-9.9,10.2-18.5
						c-1.9-4.4-5.5-7.4-9.5-9.8c-2.3-1.4-5.5-2.5-7-4.9c-2.6-4.1,2.6-5.6,5.7-4.4c4.6,1.7,8.3,3.1,13.2,1.4c3.5-1.2,7.6-1.6,8.2-6.1
						c0.7-5.3-7.4-7.6-8.1-2.2c-0.1,0.2-0.1,0.5-0.2,0.7c0.8-0.6,1.7-1.3,2.5-1.9c-1.6,0.6-3.3,1-4.9,1.5c-3.2,1-5.2-0.1-8-1.3
						c-4.2-1.6-8.7-1.6-12.6,0.9c-8.9,5.9-4.6,16.6,2.8,21.3c3.9,2.5,10.3,4.7,10.5,10.2c0.2,6.1-7.6,5.7-11.2,3.6
						c-7.7-4.5-16.2-9.3-23.7-1.6C140,96,145.9,101.9,149.7,98L149.7,98z"/>
				</g>
			</g>
			<g id="XMLID_59_">
				<g id="XMLID_85_">
					<path id="XMLID_89_" class="st7" d="M89.7,148.5c-0.9,3.8-0.5,7.5,1.3,11c1.8,3.6,7.8,8,7.6,12.1c-0.1,3.1-2.8,4.1-5.5,3.5
						s-4.2-2.3-5.7-4.5c-2.3-3.3-4.5-6.6-8.2-8.5c-6.7-3.5-15.8-3-19.4,4.4c-1.8,3.7-2.1,8.1-0.9,12.1c0.7,2.3,2,4.3,3.3,6.3
						c0.7,1.2,1.6,2.2,1.3,3.7c-0.4,1.7-1.3,1.6-3.1,1.8c-5.3,0.6-5.4,9,0,8.4c4-0.5,8.2-1.3,10.5-4.9c2.3-3.7,1.4-8.1-0.6-11.7
						c-1.4-2.6-3.5-4.9-3.7-7.9c-0.3-4.2,2.2-6.4,6.2-5.5c5.8,1.3,7.2,7.2,11.1,11c5.7,5.5,17.4,5.9,21.4-1.7
						c2.1-3.9,2.2-8.7,0.1-12.6c-2.5-4.6-9-8.8-7.6-14.6C99,145.5,90.9,143.2,89.7,148.5L89.7,148.5z"/>
				</g>
			</g>
		</g>
		<g id="XMLID_56_">
			<g id="XMLID_57_">
				<g id="XMLID_78_">
					<path id="XMLID_83_" class="st7" d="M95.4,72.4c13.4-2.9,27.6-0.7,37.5,9.4c7.8,8,11.8,19.6,10.2,30.7
						c-3.9,27.4-37.5,39.4-58.4,22c-12.2-10.2-14.2-25.9-10.4-40.6c1.4-5.6-7.2-8-8.7-2.4c-4.2,16.3-2.4,33.7,9.6,46.4
						c9.3,9.9,23.6,15.2,37.1,13.8c17.5-1.8,32.6-13.9,38.1-30.7c4.6-13.9,1.4-29.7-7.4-41.3c-11.9-15.7-31.3-20-49.9-16
						C87.4,64.9,89.8,73.6,95.4,72.4L95.4,72.4z"/>
				</g>
			</g>
		</g>
	</g>
</g>
<g id="XMLID_80_">
	<g id="XMLID_93_">
		<path id="XMLID_96_" class="st5" d="M56.5,37.6l-8,2.4c-2.2,0.7-3.5,3-2.9,5.2c0.7,2.2,3,3.5,5.2,2.9l8-2.4c1.1-0.3,2-1.1,2.5-2
			s0.7-2.1,0.3-3.2C61.1,38.3,58.7,37,56.5,37.6z"/>
	</g>
</g>
<g id="XMLID_19_">
	<g id="XMLID_20_">
		<path id="XMLID_21_" class="st4" d="M39,123.1c-0.1,0-0.1,0-0.2,0c-3.2,0.6-4.9,4.7-1.8,7.7c2.1,1.2,4.1,0.8,5.4-0.4
			c1-0.9,1.6-2.3,1.4-3.7C43.4,124.4,41.3,122.8,39,123.1z"/>
	</g>
</g>
<g id="XMLID_45_">
	<g id="XMLID_55_">
		<path id="XMLID_48_" class="st6" d="M194,24.7"/>
	</g>
</g>
<g id="XMLID_6_">
	<g id="XMLID_18_">
		<path id="XMLID_26_" class="st7" d="M81.5,70.4c-3,2.1-5.5,5-7.4,8.1c-1.2,2-0.5,5,1.6,6.2c2.2,1.2,4.8,0.5,6.2-1.6
			c0.3-0.5,0.7-1,1-1.5c0.5-0.7-0.3,0.3,0.1-0.1c0.2-0.3,0.5-0.6,0.7-0.9c0.5-0.5,0.9-1,1.4-1.5c0.3-0.3,0.5-0.5,0.8-0.7
			c0.7-0.6-0.6,0.4,0.1-0.1c1.9-1.3,3-4,1.6-6.2C86.4,70.1,83.6,69,81.5,70.4L81.5,70.4z"/>
	</g>
</g>
</svg>
